
<svg width="470" height="104" viewBox="0 0 470 104" fill="none" xmlns="http://www.w3.org/2000/svg">
<rect width="470" height="104" rx="10" fill="#1F2630"/>
<g clip-path="url(#clip0)">
<path d="M117.221 30.6094L117.166 30.5771L117.04 30.5384C117.091 30.5815 117.154 30.6065 117.221 30.6094Z" fill="#0D0C22"/>
<path d="M118.016 36.3247L117.955 36.3419L118.016 36.3247Z" fill="#0D0C22"/>
<path d="M117.244 30.6006C117.236 30.5996 117.228 30.5978 117.221 30.5951C117.221 30.6002 117.221 30.6053 117.221 30.6104C117.229 30.6093 117.237 30.6059 117.244 30.6006Z" fill="#0D0C22"/>
<path d="M117.221 30.6105H117.23V30.605L117.221 30.6105Z" fill="#0D0C22"/>
<path d="M117.967 36.3144L118.059 36.2616L118.094 36.2422L118.125 36.2089C118.066 36.2342 118.013 36.27 117.967 36.3144Z" fill="#0D0C22"/>
<path d="M117.38 30.7343L117.29 30.6482L117.229 30.6149C117.262 30.673 117.316 30.7159 117.38 30.7343Z" fill="#0D0C22"/>
<path d="M94.7546 86.1942C94.6827 86.2255 94.6198 86.2743 94.5715 86.3362L94.6282 86.2999C94.6668 86.2643 94.7214 86.2224 94.7546 86.1942Z" fill="#0D0C22"/>
<path d="M107.893 83.5953C107.893 83.514 107.853 83.529 107.863 83.8192C107.863 83.7961 107.873 83.7723 107.877 83.7498C107.882 83.6979 107.886 83.6472 107.893 83.5953Z" fill="#0D0C22"/>
<path d="M106.53 86.1942C106.458 86.2255 106.395 86.2743 106.347 86.3362L106.404 86.2999C106.442 86.2643 106.497 86.2224 106.53 86.1942Z" fill="#0D0C22"/>
<path d="M85.5019 86.8122C85.4474 86.7647 85.3806 86.7334 85.3093 86.7215C85.3671 86.7497 85.4249 86.7778 85.4634 86.7991L85.5019 86.8122Z" fill="#0D0C22"/>
<path d="M83.42 84.8075C83.4115 84.7231 83.3856 84.6411 83.344 84.5667C83.3735 84.6436 83.3981 84.723 83.4178 84.8031L83.42 84.8075Z" fill="#0D0C22"/>
<path d="M95.726 46.8975C93.012 48.0396 89.932 49.3345 85.9402 49.3345C84.2703 49.3312 82.6085 49.106 81 48.665L83.7608 76.5279C83.8585 77.6923 84.3983 78.7782 85.2728 79.5697C86.1473 80.3612 87.2927 80.8002 88.4814 80.8002C88.4814 80.8002 92.3959 81 93.7022 81C95.108 81 99.3234 80.8002 99.3234 80.8002C100.512 80.8002 101.657 80.3606 102.531 79.5691C103.406 78.7776 103.945 77.6923 104.043 76.5279L107 45.7384C105.679 45.2948 104.345 45 102.842 45C100.241 44.999 98.1463 45.8793 95.726 46.8975Z" fill="#FFDD00"/>
<path d="M72.8958 36.1521L72.9451 36.1984L72.9772 36.2178C72.9524 36.1931 72.9252 36.1711 72.8958 36.1521Z" fill="#0D0C22"/>
<path d="M119.768 32.0458L119.354 29.9643C118.982 28.0967 118.139 26.332 116.214 25.657C115.598 25.441 114.898 25.3483 114.425 24.9013C113.952 24.4543 113.812 23.7601 113.703 23.1164C113.5 21.9349 113.31 20.7523 113.102 19.5729C112.923 18.5588 112.781 17.4197 112.315 16.4894C111.707 15.2403 110.446 14.5098 109.192 14.0265C108.55 13.7876 107.894 13.5855 107.229 13.4211C104.096 12.5978 100.803 12.2951 97.5807 12.1226C93.7128 11.9099 89.8347 11.974 85.976 12.3143C83.104 12.5746 80.079 12.8894 77.3498 13.8792C76.3523 14.2414 75.3244 14.6763 74.5659 15.4441C73.6352 16.3875 73.3314 17.8465 74.0109 19.023C74.494 19.8584 75.3122 20.4487 76.1801 20.8391C77.3106 21.3423 78.4912 21.7251 79.7023 21.9813C83.0746 22.7239 86.5675 23.0155 90.0127 23.1396C93.8313 23.2931 97.6559 23.1687 101.456 22.7673C102.396 22.6643 103.334 22.5409 104.271 22.397C105.373 22.2285 106.081 20.7917 105.756 19.7908C105.367 18.5942 104.322 18.1301 103.14 18.3107C102.966 18.3379 102.793 18.3631 102.619 18.3883L102.493 18.4065C102.093 18.457 101.693 18.504 101.292 18.5477C100.465 18.6365 99.6361 18.7092 98.805 18.7657C96.9436 18.8948 95.0773 18.9543 93.2119 18.9574C91.3788 18.9574 89.5448 18.9059 87.7159 18.7859C86.8814 18.7314 86.0489 18.6621 85.2185 18.578C84.8408 18.5387 84.4641 18.4973 84.0874 18.4509L83.7288 18.4055L83.6509 18.3944L83.2792 18.3409C82.5197 18.2269 81.7601 18.0957 81.0087 17.9373C80.9329 17.9205 80.865 17.8785 80.8164 17.8182C80.7678 17.7578 80.7413 17.6827 80.7413 17.6054C80.7413 17.528 80.7678 17.4529 80.8164 17.3926C80.865 17.3322 80.9329 17.2902 81.0087 17.2734H81.0229C81.6741 17.1352 82.3303 17.0171 82.9885 16.9142C83.208 16.8799 83.4281 16.8463 83.6488 16.8133H83.6549C84.0671 16.7861 84.4813 16.7124 84.8914 16.664C88.4599 16.2942 92.0495 16.1681 95.6353 16.2866C97.3761 16.3371 99.1159 16.439 100.849 16.6145C101.221 16.6529 101.592 16.6932 101.963 16.7386C102.104 16.7558 102.247 16.776 102.39 16.7931L102.678 16.8345C103.516 16.9589 104.35 17.11 105.18 17.2875C106.409 17.5539 107.988 17.6407 108.535 18.9826C108.709 19.4084 108.788 19.8816 108.884 20.3286L109.007 20.8987C109.01 20.9089 109.013 20.9194 109.014 20.9299C109.304 22.2752 109.594 23.6205 109.884 24.9658C109.905 25.0652 109.906 25.1679 109.886 25.2675C109.865 25.3671 109.825 25.4614 109.766 25.5447C109.707 25.6279 109.632 25.6982 109.545 25.7512C109.458 25.8042 109.361 25.8387 109.26 25.8527H109.252L109.075 25.877L108.9 25.9001C108.345 25.9721 107.789 26.0394 107.233 26.102C106.137 26.2264 105.04 26.334 103.94 26.4248C101.756 26.6057 99.5679 26.7245 97.3751 26.781C96.2577 26.8106 95.1407 26.8244 94.024 26.8224C89.5793 26.8189 85.1383 26.5615 80.7231 26.0515C80.2451 25.995 79.7671 25.9344 79.2891 25.8729C79.6598 25.9204 79.0197 25.8366 78.8901 25.8184C78.5863 25.776 78.2825 25.732 77.9787 25.6863C76.9589 25.5339 75.9452 25.3462 74.9274 25.1817C73.697 24.98 72.5202 25.0809 71.4072 25.6863C70.4937 26.1844 69.7542 26.9481 69.2876 27.8757C68.8076 28.8645 68.6648 29.9411 68.4501 31.0036C68.2354 32.066 67.9012 33.2092 68.0278 34.2999C68.3002 36.6538 69.952 38.5668 72.3278 38.9947C74.5628 39.3982 76.81 39.7251 79.0633 40.0036C87.9147 41.0837 96.8569 41.2129 105.736 40.3891C106.459 40.3218 107.181 40.2485 107.902 40.1691C108.127 40.1445 108.355 40.1703 108.569 40.2447C108.783 40.3192 108.978 40.4404 109.138 40.5995C109.299 40.7585 109.422 40.9513 109.498 41.1639C109.575 41.3764 109.602 41.6033 109.579 41.8278L109.354 44.0052C108.901 48.405 108.448 52.8045 107.995 57.2036C107.523 61.8234 107.047 66.4429 106.568 71.0616C106.433 72.3629 106.298 73.6635 106.163 74.9635C106.034 76.2442 106.016 77.5648 105.771 78.8302C105.387 80.8198 104.035 82.0419 102.062 82.4887C100.255 82.8986 98.4082 83.1138 96.5548 83.1302C94.5 83.1414 92.4463 83.0505 90.3915 83.0616C88.1979 83.0739 85.5112 82.8722 83.818 81.2456C82.3303 79.8171 82.1247 77.58 81.9222 75.6455C81.6521 73.0847 81.3845 70.5245 81.1191 67.9644L79.6304 53.7287L78.6674 44.5178C78.6511 44.3655 78.6349 44.2151 78.6197 44.0617C78.5043 42.963 77.7235 41.8874 76.493 41.9429C75.4398 41.9893 74.2428 42.8812 74.3664 44.0617L75.0803 50.8905L76.5568 65.0162C76.9775 69.0285 77.3971 73.0413 77.8156 77.0552C77.8967 77.824 77.9726 78.5951 78.0577 79.3638C78.5205 83.5653 81.7409 85.8294 85.7289 86.4668C88.0582 86.8404 90.4441 86.9172 92.8078 86.9553C95.8378 87.004 98.8982 87.1201 101.879 86.573C106.295 85.7655 109.609 82.8277 110.081 78.2702C110.217 76.9543 110.352 75.6385 110.487 74.322C110.936 69.9686 111.384 65.6148 111.831 61.2607L113.296 47.0342L113.967 40.5142C114.001 40.1909 114.138 39.8869 114.358 39.6472C114.578 39.4075 114.87 39.2449 115.191 39.1833C116.453 38.9381 117.661 38.5194 118.559 37.5619C119.989 36.0374 120.273 34.0497 119.768 32.0458ZM72.263 33.4524C72.2822 33.4433 72.2468 33.6077 72.2316 33.6844C72.2285 33.5683 72.2346 33.4654 72.263 33.4524ZM72.3855 34.3967C72.3956 34.3897 72.426 34.4301 72.4574 34.4785C72.4098 34.434 72.3794 34.4008 72.3845 34.3967H72.3855ZM72.506 34.5551C72.5496 34.6288 72.5729 34.6752 72.506 34.5551V34.5551ZM72.7481 34.7509H72.7541C72.7541 34.758 72.7653 34.765 72.7693 34.7721C72.7626 34.7643 72.7551 34.7572 72.747 34.7509H72.7481ZM115.132 34.4583C114.678 34.8881 113.995 35.0879 113.319 35.1878C105.744 36.3077 98.0587 36.8748 90.4005 36.6246C84.9198 36.4379 79.4968 35.8315 74.0707 35.0677C73.539 34.9931 72.9627 34.8962 72.5972 34.5057C71.9085 33.7691 72.2468 32.286 72.426 31.3961C72.5901 30.5808 72.904 29.4941 73.8772 29.3781C75.3963 29.2005 77.1604 29.8392 78.6633 30.0662C80.4727 30.3413 82.2888 30.5616 84.1116 30.7271C91.8912 31.4334 99.8015 31.3234 107.547 30.2902C108.958 30.1012 110.365 29.8816 111.767 29.6314C113.015 29.4084 114.4 28.9897 115.154 30.2781C115.672 31.1559 115.741 32.3304 115.661 33.3222C115.636 33.7543 115.446 34.1607 115.131 34.4583H115.132Z" fill="white"/>
</g>
<path d="M156.517 51.609C158.038 51.973 159.175 52.7205 159.929 53.8515C160.683 54.9695 161.06 56.406 161.06 58.161C161.06 60.657 160.209 62.5875 158.506 63.9525C156.816 65.3175 154.196 66 150.647 66H143.276V38.817H150.53C156.64 38.817 159.695 41.235 159.695 46.071C159.695 47.202 159.429 48.281 158.896 49.308C158.363 50.335 157.57 51.102 156.517 51.609ZM154.859 46.227C154.859 44.927 154.456 44.0105 153.65 43.4775C152.844 42.9445 151.804 42.678 150.53 42.678H148.19V50.205H151.349C152.181 50.205 152.857 50.0035 153.377 49.6005C153.897 49.1975 154.274 48.697 154.508 48.099C154.742 47.488 154.859 46.864 154.859 46.227ZM151.193 62.061C152.597 62.061 153.735 61.7685 154.606 61.1835C155.477 60.5855 155.912 59.487 155.912 57.888C155.912 56.289 155.457 55.2165 154.547 54.6705C153.65 54.1115 152.454 53.832 150.959 53.832H148.19V62.061H151.193ZM180.457 46.578V66H176.05L175.953 63.4845C175.381 64.3815 174.672 65.103 173.827 65.649C172.995 66.195 171.929 66.468 170.629 66.468C168.705 66.468 167.269 65.857 166.32 64.635C165.371 63.413 164.896 61.671 164.896 59.409V46.578H169.771V58.98C169.771 60.111 169.973 61.0015 170.376 61.6515C170.792 62.2885 171.448 62.607 172.345 62.607C172.956 62.607 173.502 62.4575 173.983 62.1585C174.477 61.8465 174.867 61.4175 175.153 60.8715C175.439 60.3125 175.582 59.682 175.582 58.98V46.578H180.457ZM190.401 64.674L183.108 46.578H188.529L191.415 55.236L192.663 59.721L193.911 55.236L196.836 46.578H201.945L192.039 73.371H187.242L190.401 64.674ZM233.694 46.11C235.605 46.11 237.048 46.7275 238.023 47.9625C239.011 49.1845 239.505 50.92 239.505 53.169V66H234.552V53.676C234.552 52.545 234.331 51.661 233.889 51.024C233.46 50.374 232.797 50.049 231.9 50.049C231.289 50.049 230.704 50.205 230.145 50.517C229.599 50.829 229.157 51.2645 228.819 51.8235C228.481 52.3695 228.312 52.987 228.312 53.676V66H223.32V53.676C223.32 52.571 223.073 51.6805 222.579 51.0045C222.098 50.3155 221.409 49.971 220.512 49.971C219.888 49.971 219.316 50.1335 218.796 50.4585C218.276 50.7705 217.86 51.2125 217.548 51.7845C217.236 52.3435 217.08 52.974 217.08 53.676V66H212.088V46.578H216.573L216.69 49.152C218.003 47.124 219.914 46.11 222.423 46.11C223.723 46.11 224.809 46.396 225.68 46.968C226.564 47.54 227.227 48.372 227.669 49.464C228.995 47.228 231.003 46.11 233.694 46.11ZM252.987 66.507C250.894 66.507 249.165 66.065 247.8 65.181C246.435 64.284 245.434 63.088 244.797 61.593C244.173 60.098 243.861 58.408 243.861 56.523C243.861 54.599 244.212 52.8505 244.914 51.2775C245.629 49.6915 246.669 48.437 248.034 47.514C249.399 46.578 251.024 46.11 252.909 46.11C255.717 46.11 257.725 46.9225 258.934 48.5475C260.143 50.1595 260.748 52.571 260.748 55.782C260.748 56.406 260.722 57.108 260.67 57.888H248.97C249.048 59.461 249.483 60.6765 250.276 61.5345C251.082 62.3795 252.259 62.802 253.806 62.802C254.612 62.802 255.476 62.6265 256.399 62.2755C257.322 61.9115 258.005 61.476 258.447 60.969L260.007 64.674C258.174 65.896 255.834 66.507 252.987 66.507ZM255.795 54.846C255.795 52.935 255.554 51.622 255.073 50.907C254.605 50.179 253.923 49.815 253.026 49.815C251.765 49.815 250.783 50.283 250.081 51.219C249.392 52.155 249.009 53.364 248.931 54.846H255.795ZM276.659 66.546C275.502 66.546 274.527 66.286 273.734 65.766C272.941 65.246 272.343 64.544 271.94 63.66C271.55 62.776 271.355 61.788 271.355 60.696C271.355 59.747 271.667 58.8045 272.291 57.8685C272.928 56.9195 274.053 56.1135 275.665 55.4505C277.277 54.7875 279.454 54.456 282.197 54.456V53.559C282.197 52.493 281.937 51.6675 281.417 51.0825C280.91 50.4975 280.013 50.205 278.726 50.205C277.712 50.205 276.718 50.3805 275.743 50.7315C274.781 51.0695 274.072 51.492 273.617 51.999L272.057 48.255C272.941 47.657 274.04 47.15 275.353 46.734C276.666 46.318 278.063 46.11 279.545 46.11C281.404 46.11 282.873 46.396 283.952 46.968C285.044 47.54 285.811 48.346 286.253 49.386C286.695 50.426 286.916 51.713 286.916 53.247V66H282.743L282.392 63.231C281.703 64.349 280.884 65.181 279.935 65.727C278.999 66.273 277.907 66.546 276.659 66.546ZM278.726 62.802C279.324 62.802 279.955 62.5615 280.618 62.0805C281.281 61.5995 281.807 60.995 282.197 60.267V57.498C282.015 57.472 281.703 57.459 281.261 57.459C279.948 57.459 278.772 57.68 277.732 58.122C276.705 58.551 276.191 59.253 276.191 60.228C276.191 61.151 276.393 61.814 276.796 62.217C277.212 62.607 277.855 62.802 278.726 62.802ZM307.216 66.468C305.227 66.468 303.569 66.0195 302.243 65.1225C300.917 64.2125 299.936 62.997 299.299 61.476C298.675 59.955 298.363 58.252 298.363 56.367C298.363 54.521 298.714 52.818 299.416 51.258C300.118 49.698 301.158 48.45 302.536 47.514C303.914 46.578 305.565 46.11 307.489 46.11C308.685 46.11 309.725 46.24 310.609 46.5C311.506 46.747 312.364 47.202 313.183 47.865L311.584 51.999C311.207 51.44 310.648 50.998 309.907 50.673C309.179 50.335 308.464 50.166 307.762 50.166C304.928 50.166 303.511 52.22 303.511 56.328C303.511 58.473 303.855 60.0395 304.544 61.0275C305.246 62.0025 306.319 62.49 307.762 62.49C308.633 62.49 309.426 62.3275 310.141 62.0025C310.869 61.6775 311.441 61.281 311.857 60.813L313.339 64.284C313.053 64.596 312.617 64.921 312.032 65.259C311.46 65.584 310.758 65.8635 309.926 66.0975C309.094 66.3445 308.191 66.468 307.216 66.468ZM324.889 66.39C322.991 66.39 321.373 65.987 320.034 65.181C318.695 64.375 317.674 63.218 316.972 61.71C316.27 60.189 315.919 58.369 315.919 56.25C315.919 54.131 316.277 52.311 316.992 50.79C317.72 49.269 318.766 48.112 320.131 47.319C321.509 46.513 323.147 46.11 325.045 46.11C326.93 46.11 328.529 46.526 329.842 47.358C331.168 48.177 332.169 49.347 332.845 50.868C333.521 52.389 333.859 54.183 333.859 56.25C333.859 58.304 333.508 60.098 332.806 61.632C332.104 63.153 331.077 64.3295 329.725 65.1615C328.386 65.9805 326.774 66.39 324.889 66.39ZM324.967 62.49C326.176 62.49 327.093 61.9635 327.717 60.9105C328.354 59.8575 328.672 58.304 328.672 56.25C328.672 54.183 328.354 52.623 327.717 51.57C327.093 50.504 326.176 49.971 324.967 49.971C323.693 49.971 322.731 50.4715 322.081 51.4725C321.431 52.4735 321.106 54.066 321.106 56.25C321.106 58.434 321.431 60.02 322.081 61.008C322.731 61.996 323.693 62.49 324.967 62.49ZM338.654 50.673H336.041V46.578H338.654V42.99C338.654 41.131 338.999 39.662 339.688 38.583C340.377 37.504 341.215 36.763 342.203 36.36C343.191 35.944 344.205 35.736 345.245 35.736C346.35 35.736 347.247 35.8335 347.936 36.0285C348.638 36.2235 349.08 36.412 349.262 36.594V40.845C348.989 40.507 348.567 40.2405 347.995 40.0455C347.436 39.8505 346.922 39.753 346.454 39.753C344.4 39.753 343.373 40.793 343.373 42.873V46.578H348.092V50.673H343.373V66H338.654V50.673ZM352.265 50.673H349.652V46.578H352.265V42.99C352.265 41.131 352.61 39.662 353.299 38.583C353.988 37.504 354.826 36.763 355.814 36.36C356.802 35.944 357.816 35.736 358.856 35.736C359.961 35.736 360.858 35.8335 361.547 36.0285C362.249 36.2235 362.691 36.412 362.873 36.594V40.845C362.6 40.507 362.178 40.2405 361.606 40.0455C361.047 39.8505 360.533 39.753 360.065 39.753C358.011 39.753 356.984 40.793 356.984 42.873V46.578H361.703V50.673H356.984V66H352.265V50.673ZM372.31 66.507C370.217 66.507 368.488 66.065 367.123 65.181C365.758 64.284 364.757 63.088 364.12 61.593C363.496 60.098 363.184 58.408 363.184 56.523C363.184 54.599 363.535 52.8505 364.237 51.2775C364.952 49.6915 365.992 48.437 367.357 47.514C368.722 46.578 370.347 46.11 372.232 46.11C375.04 46.11 377.048 46.9225 378.257 48.5475C379.466 50.1595 380.071 52.571 380.071 55.782C380.071 56.406 380.045 57.108 379.993 57.888H368.293C368.371 59.461 368.806 60.6765 369.599 61.5345C370.405 62.3795 371.582 62.802 373.129 62.802C373.935 62.802 374.799 62.6265 375.722 62.2755C376.645 61.9115 377.328 61.476 377.77 60.969L379.33 64.674C377.497 65.896 375.157 66.507 372.31 66.507ZM375.118 54.846C375.118 52.935 374.877 51.622 374.396 50.907C373.928 50.179 373.246 49.815 372.349 49.815C371.088 49.815 370.106 50.283 369.404 51.219C368.715 52.155 368.332 53.364 368.254 54.846H375.118ZM392.534 66.507C390.441 66.507 388.712 66.065 387.347 65.181C385.982 64.284 384.981 63.088 384.344 61.593C383.72 60.098 383.408 58.408 383.408 56.523C383.408 54.599 383.759 52.8505 384.461 51.2775C385.176 49.6915 386.216 48.437 387.581 47.514C388.946 46.578 390.571 46.11 392.456 46.11C395.264 46.11 397.272 46.9225 398.481 48.5475C399.69 50.1595 400.295 52.571 400.295 55.782C400.295 56.406 400.269 57.108 400.217 57.888H388.517C388.595 59.461 389.03 60.6765 389.823 61.5345C390.629 62.3795 391.806 62.802 393.353 62.802C394.159 62.802 395.023 62.6265 395.946 62.2755C396.869 61.9115 397.552 61.476 397.994 60.969L399.554 64.674C397.721 65.896 395.381 66.507 392.534 66.507ZM395.342 54.846C395.342 52.935 395.101 51.622 394.62 50.907C394.152 50.179 393.47 49.815 392.573 49.815C391.312 49.815 390.33 50.283 389.628 51.219C388.939 52.155 388.556 53.364 388.478 54.846H395.342Z" fill="white"/>
<defs>
<clipPath id="clip0">
<rect width="55" height="80" fill="white" transform="translate(68 12)"/>
</clipPath>
</defs>
</svg>
